<?xml version="1.0" ?><!DOCTYPE svg  PUBLIC '-//W3C//DTD SVG 1.1//EN'  'http://www.w3.org/Graphics/SVG/1.1/DTD/svg11.dtd'><svg height="512px" style="enable-background:new 0 0 512 512;" version="1.1" viewBox="0 0 512 512" width="512px" xml:space="preserve" xmlns="http://www.w3.org/2000/svg" xmlns:xlink="http://www.w3.org/1999/xlink"><g id="_x38_8"><g><g><path d="M266.291,127.493c-0.897,0-1.498-0.13-1.971-0.23c-2.208-0.476-3.351-1.749-3.915-2.735     c-0.942-1.634-0.439-3.717,1.146-4.736c22.429-14.433,52.842-34.206,75.553-49.291c-18.678,11.273-40.606,25.51-53.3,33.757     c-23.093,14.991-23.093,14.997-25.118,14.506c-0.946-0.225-1.774-0.84-2.262-1.68c-2.48-4.297,1.3-9.385,14.998-18.748     c-0.916-1.543-0.534-3.542,0.922-4.627l23.996-17.978c-0.831-1.659-0.23-3.696,1.395-4.633c0.304-0.176,0.619-0.297,0.94-0.376     c2.044-0.979,11.564-6.598,20.019-11.722c1.613-0.974,3.699-0.519,4.761,1.043c0.897,1.337,0.77,3.083-0.237,4.266l30.037-17.344     c0.818-0.467,1.777-0.598,2.687-0.352c0.897,0.243,1.674,0.837,2.141,1.646c0.419,0.731,0.612,1.438,0.582,2.138     c6.604-3.12,10.564-4.157,12.796-3.621c1.292,0.31,2.354,1.083,2.984,2.168c1.782,3.086-0.886,5.036-5.301,8.259     c-2.759,2.014-6.858,4.867-12.171,8.487c-8.933,6.062-21.444,14.375-37.199,24.709c-11.655,7.638-23.396,15.276-32.978,21.486     c8.751-4.742,21.079-12.068,38.399-23.357c26.246-17.102,51.05-34.907,51.292-35.083c1.583-1.14,3.791-0.776,4.931,0.807     c1.14,1.586,0.776,3.793-0.807,4.931c-0.249,0.176-24.979,17.929-51.231,35.052C283.848,123.934,270.997,127.493,266.291,127.493     z" style="fill:#D71A60;"/></g><g><path d="M97.256,211.082c-0.503,0-0.961-0.051-1.38-0.143c-1.479-0.336-2.687-1.201-3.402-2.438     c-0.488-0.843-0.604-1.85-0.328-2.78c0.443-1.474,0.664-1.586,4.421-3.469c0.094-0.045,0.188-0.091,0.285-0.143     c-0.358-0.276-0.661-0.622-0.892-1.022c-0.497-0.858-0.973-2.28-0.446-4.19c0.4-1.428,1.031-3.708,7.532-9.363     c-0.37-0.288-0.679-0.652-0.922-1.067c-1.704-2.947,0.379-4.682,5.167-8.035c-0.027-0.003-0.049-0.012-0.073-0.015     c-1.089-0.273-1.989-0.943-2.529-1.88c-0.958-1.662-0.421-3.781,1.21-4.779c9.206-5.643,19.527-12.004,30.213-18.651     c-1.013,0.285-1.671,0.245-2.308,0.094c-1.021-0.243-1.874-0.873-2.389-1.771c-0.207-0.361-0.346-0.743-0.418-1.131     c-2.838,1.198-4.3,1.383-5.346,1.116c-1.034-0.257-1.892-0.9-2.411-1.804c-0.977-1.686-0.394-3.848,1.292-4.824     c0.761-0.44,1.625-0.561,2.429-0.406c6.167-1.911,38.324-21.817,59.804-35.113c40.013-24.77,40.443-24.664,42.821-24.067     c0.925,0.234,1.786,0.88,2.268,1.708c0.033,0.061,0.07,0.127,0.103,0.188c2.684-0.961,4.594-1.234,5.925-0.919     c1.258,0.3,2.287,1.049,2.896,2.11c1.95,3.381-1.51,5.995-5.892,9.306c-0.134,0.101-0.273,0.203-0.409,0.31     c0.333,0.003,0.606,0.073,0.909,0.148c0.928,0.233,1.795,0.882,2.277,1.71c0.955,1.65,0.421,3.757-1.194,4.767     c-1.447,0.898-2.917,1.813-4.403,2.741c1.625-0.688,2.111-0.561,2.793-0.385c0.925,0.233,1.734,0.849,2.213,1.674     c0.273,0.476,0.431,1.003,0.464,1.54c3.903-0.934,5.649-0.558,6.801-0.313c1.516,0.325,2.586,0.971,3.335,1.677     c1.832-0.388,3.357-0.443,4.6-0.161c2.141,0.482,3.262,1.75,3.829,2.726c0.977,1.692,0.395,3.851-1.292,4.827     c-1.477,0.853-3.308,0.519-4.396-0.7c-0.285-0.015-0.701,0.015-1.316,0.143c-1.195,3.684-6.295,13.308-69.956,48.642     c-12.023,6.671-25.255,13.781-39.576,21.262C116.358,203.729,103.508,211.076,97.256,211.082z M222.203,123.955     c-11.24,5.673-28.439,15.57-54.701,32.693c-22.032,14.357-43.388,29.224-55.698,37.915c8.363-4.257,16.425-8.412,24.167-12.45     c10.4-6.956,21.429-14.582,31.149-21.308C190.708,144.489,208.734,132.221,222.203,123.955z M230.517,127.224     c-2.389,1.401-5.058,3.017-8.035,4.875c-7.092,4.43-15.003,9.652-23.266,15.24C214.277,138.442,224.107,131.938,230.517,127.224z     " style="fill:#D71A60;"/></g><g><path d="M91.501,200.727c-0.255,0-0.519-0.033-0.813-0.097c-0.967-0.212-1.807-0.822-2.301-1.68     c-0.37-0.64-0.37-0.64-0.97-4.184c-0.076-0.449-0.173-1.019-0.276-1.635c-1.08,0.719-2.177,1.137-3.46,0.907     c-1.101-0.194-2.05-0.861-2.607-1.825c-0.955-1.653-0.516-2.771,0.722-4.685c-0.995,0.71-1.98,1.432-2.914,2.132     c-1.546,1.165-3.742,0.864-4.921-0.67c-1.183-1.528-0.91-3.729,0.609-4.924l2.365-1.865c-0.567-0.325-1.046-0.792-1.379-1.374     c-0.47-0.816-0.598-1.804-0.349-2.714c0.449-1.646,0.5-1.829,16.501-10.898c-0.246-0.042-0.461-0.088-0.661-0.13     c-2.353-0.503-3.563-1.853-4.166-2.896c-0.552-0.955-1.077-2.52-0.458-4.554c0.94-3.102,4.618-6.607,11.492-11.08     c-0.015-0.555,0.061-1.119,0.228-1.683c1.349-4.566,9.521-10.049,27.711-19.779c-0.395-1.261-0.049-2.656,0.909-3.587     c-0.855,0.046-1.392-0.072-1.834-0.169c-1.365-0.303-2.475-1.095-3.132-2.229c-0.937-1.628-0.437-3.708,1.14-4.73l6.034-3.912     c-0.115-0.148-0.221-0.303-0.312-0.464c-0.977-1.689-0.397-3.851,1.292-4.827c0.985-0.564,2.12-0.604,3.096-0.215     c4.572-1.304,21.18-12.468,32.335-19.967c24-16.137,28.8-18.842,32.074-18.084c1.107,0.257,2.022,0.928,2.578,1.883     c0.236,0.421,0.385,0.861,0.443,1.313c0.279-0.012,0.563,0.021,0.846,0.085c0.964,0.215,1.798,0.822,2.295,1.68     c1.644,2.854-0.561,4.491-3.909,6.971c-1.935,1.434-4.721,3.444-8.078,5.84c-0.246,0.173-0.497,0.355-0.749,0.537     c1.98-1.131,3.842-2.177,5.585-3.138c3.308-2.202,6.607-4.415,9.861-6.623c0.81-0.555,1.813-0.736,2.771-0.521     c0.273,0.064,0.534,0.158,0.776,0.279c10.883-5.006,13.669-4.388,15.304-4.021c2.022,0.449,3.074,1.625,3.599,2.532     c0.627,1.089,1.228,2.878,0.515,5.216c-0.831,2.735-3.554,5.791-8.02,9.263c-0.033,0.312-0.094,0.637-0.188,0.979     c-2.811,10.313-44.136,35.747-110.468,73.439l-14.47,11.416c0.512,1.125,0.4,2.441-0.313,3.472     c-1.225,1.773-2.507,3.632-3.69,5.357c0.185,0.203,0.349,0.428,0.491,0.67c0.397,0.685,0.588,1.322,1.343,5.664     c2.432-1.541,3.717-1.941,5.136-1.628c1.025,0.228,1.911,0.87,2.429,1.768c0.976,1.692,0.397,3.854-1.292,4.828     c-0.515,0.297-1.067,0.449-1.622,0.473c-1.067,0.588-3.141,2.05-3.89,2.58C93.435,200.142,92.607,200.727,91.501,200.727z      M160.365,123.767c-1.634,0.813-3.299,1.632-4.985,2.462c-23.533,11.598-55.101,27.153-61.226,33.973     c4.427-0.567,18.827-5.495,64.094-35.046C158.952,124.695,159.661,124.228,160.365,123.767z M211.575,84.124     c-1.592,3.696-6.865,8.072-15.352,13.381c1.559-0.852,3.075-1.695,4.536-2.525c14.779-8.394,19.548-12.793,21.077-14.815     C219.607,80.57,216.099,81.947,211.575,84.124z" style="fill:#D71A60;"/></g><g><path d="M58.875,219.775c-0.318,0-0.567-0.061-0.828-0.125c-0.931-0.233-1.777-0.864-2.256-1.695     c-1.562-2.702-0.254-4.506,5.719-9.739c-1.276,0.773-2.553,1.552-3.808,2.323c-1.547,0.937-3.548,0.57-4.648-0.864     c-1.101-1.44-0.937-3.469,0.376-4.715l6.21-5.882l-0.676,0.388c-1.458,0.837-3.302,0.537-4.415-0.719     c-1.11-1.261-1.183-3.132-0.169-4.469l6.194-8.193c-0.464-0.34-0.864-0.779-1.161-1.292c-0.664-1.155-0.625-2.581,0.1-3.696     c0,0,1.501-2.307,3.436-5.276c-6.068,3.502-6.665,3.354-7.833,3.057c-0.928-0.233-1.74-0.849-2.216-1.677     c-1.595-2.76,0.409-4.658,4.4-8.436c1.84-1.741,4.188-3.884,6.607-6.071c-0.313-0.264-0.579-0.579-0.786-0.94     c-0.503-0.867-0.764-1.655-0.625-2.544c-0.048-0.009-0.091-0.021-0.136-0.033c-1.104-0.246-2.017-0.91-2.565-1.862     c-1.644-2.844,0.109-4.551,5.152-8.084c-0.1-0.127-0.188-0.261-0.27-0.403c-0.473-0.819-0.604-1.85-0.352-2.763     c0.488-1.783,0.625-2.28,19.19-12.835c-0.473-0.373-0.87-0.831-1.173-1.355c-0.564-0.979-1.106-2.581-0.494-4.682     c1.713-5.871,12.505-13.099,34.076-24.794c-0.066-0.461-0.036-0.937,0.088-1.398c0.246-0.909,0.843-1.68,1.659-2.146     c8.117-4.636,16.422-9.506,24.294-14.239c-0.343-0.303-0.643-0.664-0.879-1.076c-1.307-2.259-0.182-3.93,2.447-6.571     c-2.377,1.51-4.767,3.05-7.095,4.566c-0.815,0.534-1.807,0.707-2.753,0.479c-0.94-0.228-1.753-0.828-2.238-1.671     c-1.255-2.18-0.579-3.341,2.748-6.641c-5.892,3.727-8.417,4.682-10.461,4.215c-1.122-0.249-2.043-0.925-2.604-1.898     c-0.979-1.689-0.397-3.851,1.292-4.827c0.81-0.47,1.734-0.576,2.574-0.376c2.875-1.143,11.207-6.865,16.847-10.737     c13.984-9.6,17.554-11.783,20.419-11.131c1.091,0.246,1.992,0.907,2.541,1.853c0.821,1.431,0.549,3.238-0.658,4.36     c-1.125,1.043-2.265,2.101-3.405,3.16c6.259-3.32,7.411-3.047,8.312-2.832c1.025,0.246,1.871,0.873,2.389,1.771     c0.761,1.322,0.585,2.969-0.403,4.094c9.767-6.904,14.042-9.309,17.099-8.651c1.219,0.261,2.226,0.982,2.835,2.038     c0.279,0.488,0.455,1.028,0.519,1.583c0.233-0.161,0.47-0.318,0.704-0.479c0.81-0.555,1.813-0.746,2.774-0.527     c0.964,0.215,1.786,0.821,2.277,1.677c0.512,0.888,1.006,2.329,0.488,4.211c0.037-0.027,0.073-0.054,0.112-0.082     c0.813-0.558,1.822-0.755,2.784-0.54c0.961,0.222,1.789,0.828,2.283,1.683c0.625,1.08,0.77,2.38,0.415,3.666     c-2.107,7.708-31.58,25.638-92.509,60.01c-1.158,1.698-3.866,3.563-8.108,6.489c-2.216,1.531-4.821,3.29-7.602,5.14     c1.085,2.547-1.222,4.309-3.102,5.743c-1.265,0.964-3.057,2.28-5.1,3.781c-1.003,0.737-2.213,1.628-3.53,2.602     c0.061,0.088,0.119,0.179,0.17,0.27c1.58,2.735-0.473,4.676-4.202,8.199c-1.074,1.01-2.332,2.171-3.675,3.402     c0.421,0.173,0.819,0.431,1.155,0.773c2.029,2.025,1.098,3.454-1.389,7.268l-3.284,5.037c0.831,0.291,1.534,0.873,1.983,1.646     c0.709,1.231,0.612,2.769-0.24,3.899l-3.359,4.439l11.516-6.646c1.549-0.897,3.526-0.488,4.597,0.946s0.897,3.445-0.403,4.676     l-5.918,5.609c1.752-0.743,2.259-0.612,2.908-0.446c0.925,0.233,1.737,0.849,2.216,1.671c1.304,2.262,0.588,4.524-2.635,8.081     c1.367-0.252,2.826,0.342,3.617,1.598c1.034,1.656,0.537,3.836-1.119,4.873C64.624,217.958,60.624,219.775,58.875,219.775z      M154.188,90.276c-3.311,1.737-6.832,3.569-10.57,5.506c-18.885,9.8-46.329,24.04-53.361,31.074     C99.757,123.918,125.161,108.991,154.188,90.276z" style="fill:#D71A60;"/></g><g><path d="M260.108,461.861c-0.219,0-0.449-0.018-0.691-0.061c-1.007-0.2-1.886-0.831-2.396-1.716     c-0.897-1.571-0.431-2.675,0.403-4.439c-4.063,2.298-5.191,2.062-6.04,1.88c-1.067-0.23-1.98-0.897-2.517-1.819     c-0.91-1.577-0.473-3.59,1.016-4.646l0.985-0.697c-0.182-0.193-0.343-0.406-0.473-0.631c-0.84-1.461-1.001-2.874-0.021-4.651     c-1.686,0.946-3.824,0.346-4.791-1.334c-0.449-0.788-0.561-1.674-0.385-2.498c-1.095-0.122-2.117-0.759-2.693-1.796     c-0.243-0.437-0.385-0.903-0.43-1.37c-1.295,0.643-2.017,1.007-2.059,1.031c-1.707,0.843-3.781,0.176-4.679-1.504     c-0.904-1.68-0.303-3.772,1.346-4.725l0.379-0.218c-0.333-0.261-0.621-0.576-0.858-0.965c-0.998-1.625-0.509-3.766,1.101-4.803     l13.439-8.685l-18.642,10.759c-1.692,0.977-3.851,0.4-4.824-1.292c-0.358-0.612-0.709-1.528-0.661-2.711     c-6.525,3.603-9.8,4.682-11.687,4.228c-1.122-0.262-2.05-0.946-2.61-1.917c-0.494-0.849-0.609-1.867-0.315-2.808     c0.042-0.134,0.091-0.267,0.148-0.395c-1.395,0.134-2.165-0.048-2.787-0.193c-1.416-0.34-2.562-1.165-3.229-2.323     c-0.758-1.31-1.474-3.475-0.616-6.397c0.167-0.576,0.403-1.177,0.701-1.783c-0.343-0.272-0.637-0.618-0.864-1.019     c-0.952-1.687-0.373-3.827,1.31-4.797l9.612-5.556c0.728-0.605,1.489-1.23,2.283-1.867c-0.879,0.267-1.704,0.503-2.475,0.703     l-14.597,8.424c-0.813,0.473-1.777,0.594-2.681,0.357c-0.906-0.248-1.677-0.831-2.146-1.649     c-0.588-1.013-1.149-2.698-0.494-4.937c0.394-1.353,1.319-2.862,2.753-4.53c-0.182-0.224-0.336-0.442-0.473-0.661     c-4.354,1.316-7.829,1.717-10.413,1.141c-2.905-0.648-4.403-2.322-5.152-3.62c-0.494-0.861-0.606-1.887-0.306-2.832     c0.3-0.952,0.988-1.729,1.889-2.147c0.916-0.424,1.84-0.843,2.79-1.285c-5.728,1.346-8.139,0.813-9.673,0.461     c-2.978-0.667-4.476-2.323-5.212-3.59c-0.961-1.668-0.415-3.791,1.228-4.791l21.756-13.196c-2.596,1.213-4.891,2.237-6.917,3.093     c-6.58,4.372-10.352,6.907-10.509,7.011c-0.816,0.539-1.816,0.728-2.769,0.509c-0.955-0.225-1.774-0.83-2.262-1.674     c-0.249-0.431-0.491-1.006-0.604-1.71c-0.103-0.024-0.197-0.048-0.291-0.066c-0.955-0.23-1.677-0.631-2.223-1.079     c-1.025-0.055-1.892-0.177-2.647-0.346c-3.417-0.752-5.127-2.639-5.968-4.082c-0.646-1.122-1.261-3.008-0.503-5.598     c0.085-0.303,0.185-0.63,0.318-1.013c-1.35-0.843-2.183-1.88-2.689-2.759c-0.694-1.201-1.355-3.196-0.57-5.895     c0.019-0.066,0.04-0.127,0.058-0.188l-10.337,5.968c-1.68,0.977-3.833,0.4-4.815-1.273c-0.979-1.68-0.424-3.833,1.243-4.821     l2.863-1.704c-0.422-0.291-0.773-0.667-1.037-1.122c-2.202-0.722-3.402-2.104-4.033-3.196c-0.272-0.479-0.542-1.049-0.752-1.716     l-5.707,3.293c-0.813,0.467-1.777,0.595-2.68,0.352c-0.907-0.236-1.677-0.831-2.147-1.649c-0.143-0.242-0.285-0.527-0.416-0.837     c-0.725,0.104-1.319,0.091-1.795-0.024c-1.152-0.272-2.098-0.964-2.668-1.952c-0.488-0.843-0.613-1.947-0.328-2.875     c0.009-0.036,0.021-0.066,0.03-0.097c-0.576-0.546-0.989-1.109-1.28-1.619c-0.973-1.68-0.4-3.845,1.286-4.821     c2.417-1.407,4.864-2.82,7.323-4.251c-0.191-0.091-0.376-0.206-0.549-0.334c-2.792,0.31-5.158,0.249-7.102-0.182     c-3.881-0.849-5.818-2.972-6.755-4.591c-0.961-1.668-0.416-3.79,1.222-4.791l1.173-0.709c-1.474,0.272-2.663,0.291-3.587,0.078     c-1.449-0.339-2.632-1.194-3.323-2.383c-0.218-0.388-0.439-0.88-0.573-1.462c-3.433,1.717-5.346,2.65-5.467,2.711     c-1.707,0.85-3.781,0.188-4.682-1.498c-0.897-1.674-0.303-3.766,1.353-4.718l9.069-5.239c-4.43,2.067-7.347,2.802-9.154,2.401     c-1.304-0.298-2.374-1.062-3.008-2.165c-0.961-1.662-0.416-3.79,1.225-4.785l80.056-48.609c4.521-3.129,9.109-6.31,13.715-9.509     c-34.306,20.246-68,40.209-98.279,58.221c-1.674,1-3.839,0.455-4.836-1.226c-1.001-1.667-0.455-3.839,1.213-4.833     c15.773-9.467,35.704-21.443,58.051-34.876c-10.719,5.895-20.373,11.2-28.624,15.73c-10.591,5.822-19.078,10.485-23.426,12.905     l-3.351,1.929c-1.243,0.728-2.796,0.618-3.93-0.267c-0.979-0.752-1.477-1.959-1.349-3.166c-1.219,0-2.405-0.631-3.057-1.765     c-0.543-0.934-0.676-2.062-0.376-3.159c0.164-0.625,0.367-1.359,1.713-2.832l-3.214,1.861c-1.228,0.709-2.699,0.601-3.787-0.158     c-4.003,1.062-7.144,1.347-9.403,0.813c-2.647-0.625-4.009-2.147-4.682-3.317c-0.77-1.334-1.5-3.529-0.697-6.495     c-1.662-0.837-2.632-2.014-3.189-2.983c-0.503-0.88-0.989-2.323-0.428-4.275c0.249-0.861,0.576-1.995,2.077-3.894     c-0.027-0.412,0.018-0.831,0.133-1.231c0.176-0.588,0.3-1.013,1.519-1.88l-0.045-0.072c0.063-0.043,0.652-0.422,1.725-1.11     c-0.173-0.206-0.327-0.418-0.458-0.651c-0.961-1.665-0.416-3.791,1.228-4.785l1.119-0.679c-2.38,0.916-4.418,1.619-6.167,2.159     c-1.743,0.976-2.698,1.51-2.783,1.561c-1.167,0.649-2.535,0.573-3.593-0.081c-2.478,0.303-3.721,0.012-4.624-0.2     c-2.359-0.555-3.557-1.893-4.151-2.914c-0.476-0.831-0.6-1.816-0.336-2.735c0.264-0.918,0.889-1.695,1.729-2.144     c0.109-0.058,2.617-1.401,6.98-3.763c-0.288-0.033-0.521-0.094-0.749-0.151c-0.112-0.027-0.221-0.058-0.325-0.094     c-5.47,2.432-9.284,3.33-11.71,2.774c-1.528-0.352-2.774-1.243-3.508-2.511c-0.524-0.912-0.712-1.968-0.546-3.029     c-0.488-0.431-0.831-0.895-1.064-1.307c-0.91-1.567-0.479-3.563,0.988-4.624l6.019-4.357c-0.591-0.325-1.082-0.804-1.428-1.401     c-1.358-2.353-0.237-4.318,3.751-9.879c-2.472,1.531-4.843,3.029-6.44,4.036c-6.231,3.936-6.237,3.936-7.796,3.548     c-0.937-0.23-1.741-0.834-2.22-1.665c-1.455-2.523-0.81-4.633,6.24-10.525c-0.625-1.319-0.373-2.896,0.649-3.96     c0.619-0.637,1.247-1.292,1.871-1.944c-0.037-0.061-0.07-0.112-0.106-0.17c-0.391-0.682-0.761-1.316-0.63-2.304     c-5.916,3.181-7.314,2.865-8.169,2.671c-1.101-0.246-2.007-0.904-2.559-1.856c-1.468-2.541-0.461-5.018,4.584-9.924     c-1.104-0.246-2.016-0.906-2.565-1.865c-1.325-2.292-0.485-4.275,2.78-7.668c-0.7,0.14-1.331,0.137-1.938,0.003     c-1.146-0.245-2.095-0.928-2.668-1.925c-0.655-1.131-0.618-2.499,0.021-3.578c-5.064,2.841-5.701,2.677-6.901,2.374     c-0.928-0.23-1.774-0.867-2.25-1.695c-1.655-2.868,0.828-5.203,4.267-8.436c0.382-0.367,0.803-0.755,1.249-1.161     c-0.409-0.309-0.755-0.697-1.019-1.149c-0.858-1.489-0.525-3.378,0.794-4.482c4.09-3.411,8.293-6.986,12.244-10.416     c-14.136,9.054-14.915,9.297-16.935,8.809c-0.937-0.23-1.816-0.879-2.295-1.716c-1.589-2.747-0.597-4.727,6.471-10.249     c-1.777,0.561-2.435,0.403-2.899,0.294c-1.073-0.249-1.958-0.897-2.495-1.829c-1.774-3.077,0.542-4.797,6.14-8.941     c2.535-1.877,5.84-4.251,9.452-6.832c-0.992-0.3-1.81-0.94-2.323-1.823c-0.955-1.658-0.416-3.781,1.216-4.781     c19.473-11.923,39.882-25.322,52.933-34.94c-14.482,8.421-34.243,20.813-43.852,26.838c-13.518,8.484-13.523,8.487-15.152,8.081     c-0.934-0.23-1.734-0.834-2.217-1.665c-2.11-3.666,1.801-7.177,6.735-11.059c2.538-1.998,5.81-4.375,9.912-7.205     c-0.704-0.294-1.301-0.818-1.683-1.485c-2.001-3.466,0.525-7.065,10.361-14.461c-1.695-3.141,1.237-5.4,6.055-9.111     c3.123-2.408,7.283-5.437,11.722-8.663c-0.121-0.112-0.236-0.23-0.339-0.358c-1.234-1.51-1.013-3.739,0.5-4.973     c12.474-10.188,20.782-15,24.697-14.275c1.376,0.251,2.507,1.034,3.184,2.201c1.201,2.08,0.439,3.912-1.804,6.173     c4.633-2.72,9.291-5.458,13.754-8.087c7.226-4.312,12.068-7.128,12.162-7.186c1.683-0.976,3.839-0.413,4.824,1.268     c0.364,0.625,0.519,1.307,0.479,1.98c14.409-7.878,15.998-7.48,17.365-7.144c1.034,0.258,1.892,0.898,2.411,1.795     c2.11,3.663-1.046,5.691-12.792,13.244c-7.456,4.791-17.948,11.271-29.058,18.133c-0.182,0.109-0.358,0.221-0.54,0.331     c0.354-0.015,0.658,0.033,0.931,0.1c1.055,0.264,1.928,0.913,2.453,1.828c2.29,3.957-1.765,8.278-10.034,14.864     c-4.973,3.966-11.883,8.951-20.561,14.843c0.664,2.82-2.362,5.664-11.319,12.486c0.712,0.294,1.316,0.822,1.71,1.498     c1.692,2.932,0.361,5.619-6.911,11.583c0.182,0.024,0.361,0.058,0.54,0.103c1.022,0.246,1.871,0.876,2.39,1.777     c1.219,2.117,2.135,3.693-12.432,16.816c0.427,0.294,0.785,0.682,1.052,1.137c0.861,1.495,0.516,3.393-0.815,4.491     c-0.14,0.112-0.276,0.227-0.416,0.342c1.119-0.503,1.519-0.4,2.265-0.212c0.922,0.236,1.719,0.84,2.195,1.665     c0.849,1.474,1.007,2.414-0.619,4.509c0.376-0.021,0.734,0.015,1.098,0.091c1.07,0.23,1.989,0.895,2.529,1.832     c1.443,2.499,0.364,4.876-3.617,9c0.955-0.658,1.892-1.307,2.808-1.953c0.813-0.573,1.828-0.773,2.792-0.561     c0.967,0.215,1.804,0.828,2.298,1.683c1.704,2.95,0.416,4.381-8.317,11.71c1.058-0.725,2.107-1.443,3.132-2.153     c1.522-1.058,3.602-0.758,4.767,0.688c1.161,1.44,1.013,3.542-0.349,4.803c-2.522,2.341-5.215,4.942-7.586,7.334     c0.236,0.228,0.439,0.488,0.604,0.767c0.173,0.297,0.315,0.567,0.418,0.831c1.722-1.037,3.472-2.089,5.176-3.123     c1.625-0.992,3.748-0.513,4.791,1.088c1.043,1.595,0.627,3.733-0.934,4.824c-1.234,0.861-2.489,1.75-3.751,2.65     c0.531,0.322,0.989,0.776,1.289,1.295c1.376,2.386,0.158,4.776-3.505,9.967c3.802-2.356,7.978-5.024,11.386-7.201     c18.939-12.104,20.51-12.823,22.805-12.262c0.934,0.227,1.837,0.894,2.323,1.734c0.789,1.368,0.564,3.068-0.485,4.184     c14.345-8.281,31.957-17.65,52.014-28.014c5.697-3.724,11.407-7.471,17.08-11.189c57.657-37.823,74.543-48.257,80.047-47.308     c4.236-1.555,7.453-2.125,9.618-1.625c2.174,0.497,3.305,1.777,3.872,2.759c0.598,1.031,0.73,2.256,0.379,3.451     c-0.357,1.201-1.386,2.55-3.362,4.227c0.397,0.849,0.685,2.098,0.227,3.7c-0.47,1.655-1.234,4.324-11.228,12.071l55.978-32.317     c48.666-31.174,85.355-55.486,85.89-55.838c0.813-0.537,1.813-0.719,2.759-0.494c0.952,0.222,1.771,0.831,2.256,1.671     c0.328,0.573,0.504,1.213,0.527,1.871l9.055-5.221c1.668-0.971,3.814-0.409,4.803,1.261c0.903,1.525,0.521,3.463-0.818,4.548     c3.141-1.304,5.706-2.244,7.805-2.911c0.764-0.485,1.183-0.749,1.237-0.785c0.813-0.513,1.801-0.673,2.734-0.437     c0.098,0.021,0.177,0.048,0.273,0.076c3.25-0.67,4.646-0.331,5.664-0.085c2.025,0.485,3.068,1.659,3.584,2.553     c0.479,0.831,0.601,1.822,0.34,2.744c-0.267,0.925-0.897,1.698-1.747,2.146c-0.127,0.067-2.152,1.137-5.797,3.072     c0.352,0.309,0.648,0.673,0.885,1.085c0.23,0.392,0.455,0.852,0.637,1.38c0.631-0.443,1.256-0.876,1.862-1.31     c0.813-0.573,1.825-0.782,2.802-0.567c0.315,0.073,0.618,0.185,0.903,0.336c4.87-1.928,8.29-2.617,10.4-2.116     c1.904,0.452,2.905,1.577,3.408,2.447c0.491,0.849,0.606,1.88,0.321,2.817c-0.491,1.592-0.564,1.822-18.86,10.707     c-3.25,2.741-7.659,5.867-13.178,9.391c-0.024,0.019-0.049,0.037-0.061,0.052c18.732-10.716,30.315-17.302,30.619-17.48     c1.691-0.961,3.845-0.373,4.815,1.316c0.97,1.689,0.388,3.842-1.298,4.815l-171.482,99.004     c-6.131,3.954-12.116,7.787-17.975,11.513L440.211,81.613c1.692-0.976,3.851-0.4,4.827,1.292c0.225,0.388,0.449,0.906,0.546,1.54     l5.379-3.102c0.813-0.47,1.777-0.591,2.681-0.355c0.903,0.243,1.68,0.837,2.141,1.646c1.777,3.078-0.739,4.742-4.918,7.499     c-1.638,1.085-3.82,2.493-6.52,4.206c14.979-7.935,16.18-7.629,17.478-7.286c0.916,0.24,1.801,0.897,2.274,1.716     c0.958,1.662,0.412,3.787-1.226,4.782l-9.065,5.506c1.698,0.958,3.044,2.292,4.021,3.981c0.733,1.264,1.425,3.274,0.946,6.006     c2.886-1.519,4.481-2.359,4.591-2.419c1.71-0.892,3.808-0.258,4.736,1.428c0.139,0.251,0.248,0.521,0.327,0.792     c2.067,0.722,3.189,2.025,3.778,3.053c0.964,1.659,0.418,3.787-1.22,4.782l-59.709,36.256c-4.3,2.896-8.987,5.985-14.112,9.272     c-19.758,12.684-44.294,27.354-73.294,43.812L128.457,324.686c1.756,0.085,3.836-0.104,6.225-0.558     c6.541-3.712,25.713-14.567,51.811-29.497c22.417-14.148,53.857-32.554,98.094-56.614c5.416-3.163,10.85-6.337,16.289-9.524     c38.042-22.274,67.872-40.106,91.263-54.367c33.7-22.766,63.713-43.633,84.883-58.661c0.807-0.57,1.826-0.779,2.802-0.567     c0.971,0.209,1.808,0.822,2.299,1.683c0.582,1.003,0.722,2.216,0.4,3.411c-0.376,1.38-0.946,3.46-10.825,10.974     c0.776,0.282,1.443,0.831,1.855,1.559c0.449,0.776,0.601,1.489,0.534,2.162c0.728-0.364,1.559-0.467,2.358-0.285     c0.965,0.218,1.783,0.825,2.28,1.677c0.935,1.622,1.813,4.339,0.68,8.09c-0.23,0.749-0.534,1.525-0.928,2.329     c0.03,0.009,0.054,0.015,0.078,0.021c2.28,0.509,3.754,1.613,4.682,2.705c2.905,0.958,4.452,2.71,5.252,4.096     c0.971,1.677,0.406,3.817-1.255,4.803l-3.645,2.168c0.406,0.285,0.764,0.664,1.03,1.128c0.521,0.904,1.025,2.398,0.449,4.375     c-0.461,1.583-1.74,3.417-3.894,5.552c0.686,0.276,1.292,0.767,1.698,1.446c0.964,1.586,0.533,3.651-0.988,4.721     c-0.2,0.146-6.362,4.466-16.805,11.692c9.981-5.225,15.853-8.26,16.064-8.366c1.655-0.855,3.675-0.282,4.64,1.304     c0.958,1.589,0.527,3.65-0.989,4.721c-0.103,0.073-1.759,1.237-4.742,3.317c0.825,0.252,1.553,0.801,2.02,1.598     c0.958,1.628,0.455,3.729-1.128,4.751c-0.121,0.076-2.122,1.371-5.713,3.672c0.553,0.488,0.94,1.016,1.207,1.477     c0.958,1.665,0.412,3.793-1.225,4.788l-25.313,15.355c2.364-1.028,4.597-1.935,6.683-2.708c7.247-4.973,11.443-7.875,11.601-7.99     c0.819-0.567,1.832-0.761,2.796-0.546c0.958,0.215,1.789,0.825,2.28,1.68c0.818,1.413,0.818,2.602-0.127,3.942     c2.571,0.667,3.911,2.18,4.591,3.341c0.958,1.665,1.843,4.463,0.618,8.323c-2.056,6.486-10.012,14.955-24.13,25.637     c-0.024,0.503-0.109,1.046-0.285,1.625c-0.576,1.989-2.28,4.3-5.046,6.943c0.049,0.073,0.091,0.14,0.134,0.219     c0.437,0.758,0.867,2.008,0.406,3.669c-0.467,1.68-1.237,4.457-15.337,14.718c0.51,1.031,0.612,2.232,0.255,3.415     c-0.867,2.965-5.779,7.004-16.119,13.232c0.437,0.291,0.818,0.691,1.085,1.164c0.801,1.383,1.547,3.688,0.564,6.865     c-1.079,3.517-3.803,12.329-45.276,38.509c0.315,1.406-0.261,2.904-1.528,3.729l-23.196,14.985     c0.23,0.018,0.467,0.054,0.71,0.115c0.897,0.248,1.674,0.843,2.146,1.648c0.558,0.977,1.092,2.59,0.437,4.743     c-0.521,1.746-1.577,5.221-14.173,14.3c-1.389,2.213-5.221,6.119-17.393,14.238c-0.333,1.152-1.061,2.833-6.471,7.102     c1.037,3.196-2.717,5.737-7.756,9.133c-3.996,2.711-9.527,6.187-15.416,9.886c0.498,0.321,0.922,0.758,1.231,1.291     c0.903,1.577,0.467,3.591-1.019,4.646l-23.67,16.816c0.03,1.522-0.824,3.894-3.323,9.272c0.746,1.644,0.14,3.614-1.449,4.53     c-0.249,0.14-0.509,0.249-0.771,0.334c-0.042,0.03-0.084,0.061-0.121,0.091C262.265,461.17,261.373,461.861,260.108,461.861z      M218.992,408.792c-3.545,3.147-5.846,5.889-6.607,8.103c4.776-0.897,21.565-7.411,80.262-42.82     c31.268-20.595,56.283-36.629,73.452-45.695c9.296-5.919,17.774-11.358,24.925-15.974c-11.153,5.913-24.743,12.941-41.123,21.364     c-0.151,0.079-0.31,0.152-0.461,0.236c-6.889,4.076-14.257,8.406-22.141,13.015C282.471,373.2,237.534,398.428,218.992,408.792z      M261.582,366.42c-7.053,3.846-13.721,7.557-19.843,11.062c-7.247,4.16-13.145,7.721-17.947,10.759L261.582,366.42z      M300.252,312.611L185.607,382.17c1.319-0.315,2.872-0.74,4.706-1.334c2.059-1.844,5.646-4.209,11.195-7.793     c7.29-4.712,17.869-11.268,32.351-20.049c16.052-9.728,35.519-21.347,56.089-33.566     C293.404,317.135,296.855,314.861,300.252,312.611z M167.384,366.244c0.2,0.225,0.57,0.406,1.098,0.54     c0.2-0.552,0.5-1.225,1.009-2.056c-0.573,0.043-1.091,0.066-1.57,0.049C167.523,365.499,167.408,365.972,167.384,366.244z      M181.457,362.048c-0.867,0.776-1.616,1.474-2.265,2.116c0.773-0.685,1.638-1.425,2.611-2.226     C181.687,361.976,181.572,362.018,181.457,362.048z M180.038,341.344c-15.043,10.935-15.728,14.622-15.601,15.465     c0.07,0.109,0.2,0.206,0.361,0.303c4.042-4.657,12.289-12.007,29.691-24.111L180.038,341.344z M428.434,205.77     c-29.32,15.664-67.387,36.28-105.186,57.557c-45.859,25.81-82.349,47.526-108.462,64.537     c-20.961,13.657-32.681,22.656-39.221,28.502c0.779-0.212,1.61-0.448,2.49-0.715c14.712-12.699,52.299-38.4,150.499-92.973     c28.218-15.674,56.423-30.953,80.777-43.976C416.045,214.181,422.442,209.848,428.434,205.77z M341.155,263.769     c-3.766,2.087-7.544,4.179-11.315,6.277c-44.932,25.003-80.832,46.004-106.709,62.426c-7.132,4.53-13.202,8.521-18.381,12.05     c1.834-0.891,3.735-1.837,5.733-2.844c22.647-14.693,59.027-36.599,117.67-69.601c0.298-0.17,0.583-0.34,0.886-0.51     c1.874-1.2,3.771-2.413,5.688-3.65C336.88,266.54,339.021,265.157,341.155,263.769z M147.809,342.345     c-0.021,0.061-0.043,0.121-0.058,0.183c-0.167,0.558-0.203,0.97-0.179,1.273c0.804-0.898,1.914-1.978,3.469-3.317     L147.809,342.345z M343.672,271.465c-8.459,5.19-17.295,10.661-26.501,16.416c-23.196,14.512-46.18,29.225-66.583,42.438     c14.952-8.6,32.756-19.097,53.988-31.911c10.291-6.428,21.335-13.444,33.196-21.086c9.254-5.961,18.441-11.946,27.436-17.854     C358.117,263.405,350.907,267.42,343.672,271.465z M210.529,310.804c-9.736,6.653-19.009,13.045-27.62,19.019     c4.933-2.845,10.552-6.21,16.953-10.2c10.831-6.762,22.663-14.494,35.234-22.905     C226.157,301.956,217.991,306.632,210.529,310.804z M293.611,325.474c-1.564,1.037-3.111,2.056-4.658,3.081     c4.804-2.923,9.74-5.961,14.821-9.115C300.367,321.459,296.977,323.473,293.611,325.474z M326.577,318.257     c-4.421,3.075-8.745,6.077-12.972,9.006c48.388-24.961,96.763-51.656,127.091-72.621c2.583-1.853,5.118-3.687,7.61-5.495     c0.164-0.112,0.334-0.212,0.504-0.3c4.196-3.111,7.908-6.067,11.062-8.833c-2.444,1.489-5.658,3.411-9.739,5.831     c-10.055,5.943-24.355,14.284-40.923,23.939C387.172,282.635,356.989,300.234,326.577,318.257z M391.053,320.786     c1.11,0.576,1.777,1.395,2.159,2.062c0.013,0.006,0.013,0.019,0.019,0.03c7.368-5.391,13.008-10.17,16.435-14.117     C405.014,311.78,398.652,315.904,391.053,320.786z M373.108,310.191c-4.457,3.014-8.993,6.059-13.603,9.133l17.217-9.939     c11.141-6.786,20.413-12.583,28.133-17.52L373.108,310.191z M122.475,312.751c-0.397,0.418-0.734,0.794-1.025,1.14     c4.087-1.322,13.017-5.421,32.529-17.096C141.174,303.333,130.403,308.767,122.475,312.751z M238.786,281.446     c-0.995,0.644-1.992,1.292-2.969,1.929l7.393-4.27C241.728,279.888,240.25,280.664,238.786,281.446z M74.884,278.305     c0.597,0.322,2.047,0.57,5.528-0.309c-0.012-0.661,0.033-1.334,0.136-2.038c-0.267-0.085-0.521-0.182-0.767-0.285     c-1.646,0.383-3.163,0.631-4.542,0.759c-0.115,0.261-0.207,0.516-0.276,0.752C74.766,277.838,74.824,278.153,74.884,278.305z      M303.205,258.608c-2.486,1.722-4.942,3.42-7.375,5.112l17.133-10.191C309.736,255.215,306.479,256.907,303.205,258.608z      M121.786,249.008c-8.102,4.163-15.397,7.965-21.483,11.234C106.268,257.365,113.36,253.681,121.786,249.008z M446.87,239.563     c-6.393,3.12-15.556,8.22-28.679,16.477c-2.05,1.292-4.154,2.626-6.289,3.999C425.499,252.113,437.858,244.896,446.87,239.563z      M130.755,236.349c-0.336,0.225-0.664,0.449-0.995,0.676c10.537-5.361,23.072-11.686,37.966-19.175     c9.661-4.857,19.791-9.952,30.21-15.213c3.605-2.319,7.235-4.66,10.889-7.028C180.386,210.663,153.306,224.708,130.755,236.349z      M460.6,227.895c0.752,0,1.438,0.07,2.056,0.209c2.517,0.561,3.826,2.028,4.481,3.159c0.206,0.373,0.357,0.722,0.461,1.059     c2.025-2.441,3.396-4.654,4.015-6.595c0.546-1.704,0.127-2.419-0.012-2.653c-0.485-0.334-2.475-0.977-9.667,1.482     c-0.285,0.185-0.576,0.376-0.867,0.564c-1.68,1.077-3.529,2.256-5.573,3.544C457.434,228.156,459.144,227.895,460.6,227.895z      M445.257,104.249L244.732,226.012c14.157-8.099,29.867-16.968,47.26-26.671c28.223-15.734,56.465-31.174,81.645-44.797     c33.566-20.974,59.406-35.719,76.132-42.323c0.916-1.376,1.553-2.641,1.898-3.79c0.254-0.843,0.272-1.465,0.048-1.859     c-0.376-0.64-1.109-1.549-3.159-2.01C447.579,104.343,446.47,104.24,445.257,104.249z M201.366,208.801     c-8.372,5.382-16.431,10.513-24.151,15.361l12.623-7.287c5.346-3.423,10.783-6.922,16.274-10.479     C204.534,207.194,202.945,208.001,201.366,208.801z M316.922,199.329c-8.234,5.397-16.555,10.87-24.888,16.371     c10.14-5.616,20.14-11.222,29.922-16.78l83.258-50.559L316.922,199.329z M137.005,195.793c-0.273,0.182-0.549,0.373-0.822,0.558     c0.506-0.307,1.025-0.616,1.534-0.922C137.48,195.551,137.238,195.672,137.005,195.793z M229.438,169.923     c-1.728,0.97-3.447,1.943-5.151,2.905c1.04-0.564,2.074-1.122,3.12-1.686C228.085,170.732,228.752,170.332,229.438,169.923z      M272.707,162.012c-5.403,3.584-10.722,7.113-15.964,10.583c1.549-0.807,3.102-1.61,4.642-2.42     c5.222-3.444,10.443-6.892,15.641-10.331c-0.419,0.215-0.85,0.431-1.274,0.643C274.738,160.993,273.72,161.5,272.707,162.012z      M235.975,131.856c-5.097,2.708-11.686,6.489-20.191,11.741c-0.358,0.225-0.718,0.446-1.079,0.67     c6.067-3.163,11.774-6.18,16.822-8.936C233.304,134.021,234.769,132.873,235.975,131.856z M413.019,72.869     c-0.485,0.488-0.995,1-1.547,1.531c0.771-0.413,1.517-0.813,2.244-1.198c0.019-0.061,0.036-0.118,0.055-0.179     c0.048-0.158,0.085-0.304,0.115-0.443C413.619,72.662,413.321,72.756,413.019,72.869z" style="fill:#D71A60;"/></g></g></g><g id="Layer_1"/></svg>