<?xml version="1.0" encoding="utf-8"?>
<!-- Generator: Adobe Illustrator 17.0.0, SVG Export Plug-In . SVG Version: 6.00 Build 0)  -->
<!DOCTYPE svg PUBLIC "-//W3C//DTD SVG 1.1//EN" "http://www.w3.org/Graphics/SVG/1.1/DTD/svg11.dtd">
<svg version="1.1" id="PayPal" xmlns="http://www.w3.org/2000/svg" xmlns:xlink="http://www.w3.org/1999/xlink" x="0px" y="0px"
	 width="512px" height="145px" viewBox="0 0 512 145" enable-background="new 0 0 512 145" xml:space="preserve">
<path fill="#0C3259" d="M49.547,72.931c-3.65,0-7.301-0.016-10.951,0.007c-1.788,0.011-3.097,0.74-3.625,2.582
	c-1.201,4.186-6.298,22.926-7.633,28.113c-0.694,2.698-2.09,3.819-4.862,3.835c-5.743,0.033-11.487,0.043-17.231,0.045
	c-3.073,0.001-4.373-1.366-3.916-4.441c0.389-2.62,15.447-67.17,22.343-96.861C24.577,2.318,26.227,0.991,30.245,1
	c10.683,0.024,43.444,0.181,49.142,0.21c14.295,0.073,26.12,11.513,26.603,25.768c0.326,9.621-1.534,18.702-6.928,26.833
	C93.796,61.749,86.222,66.59,77.341,69.54C68.322,72.536,58.996,73.397,49.547,72.931z M50.223,53.014
	c2.552-0.188,4.689-0.261,6.804-0.517c5.331-0.644,10.445-1.982,14.799-5.323c5.004-3.841,6.742-8.958,5.697-15.106
	c-0.947-5.57-4.604-8.625-9.665-10.296c-5.231-1.728-10.639-1.787-16.051-1.346c-2.725,0.222-4.501,1.749-5.167,4.512
	c-0.633,2.623-1.472,5.198-2.071,7.828c-1.104,4.848-2.171,9.706-3.11,14.588c-0.6,3.119,0.483,4.668,3.522,5.191
	C46.838,52.864,48.746,52.89,50.223,53.014z"/>
<path fill="#0C3259" d="M203.026,143.597c3.084,0,6.171-0.076,9.251,0.027c1.983,0.066,3.529-0.54,4.651-2.176
	c1.905-2.778,63.362-102.943,68.534-111.735c1.307-2.222,0.547-3.968-1.895-4.002c-6.733-0.095-13.469-0.015-20.203,0.078
	c-1.742,0.024-3.026,0.874-4.015,2.475c-4.787,7.751-24.336,39.177-29.274,47.169c-0.291,0.47-1.07,1.02-1.497,0.931
	c-0.561-0.117-1.05-0.788-1.464-1.306c-0.215-0.269-0.221-0.716-0.287-1.089c-0.68-3.829-5.321-32.093-7.035-42.385
	c-0.727-4.369-2.895-6.147-7.314-6.112c-4.604,0.037-9.206,0.177-13.81,0.268c-3.56,0.071-5.597,2.416-5.095,5.929
	c0.275,1.924,12.385,66.749,14.477,77.448c0.09,0.458,0.197,0.99,0.053,1.402c-0.48,1.371-0.891,2.815-1.648,4.033
	c-4.68,7.538-9.451,15.021-14.179,22.529c-0.428,0.679-0.935,1.374-1.117,2.131c-0.611,2.542-0.787,4.229,2.893,4.152
	C197.043,143.302,203.026,143.515,203.026,143.597z"/>
<path fill="#0C3259" d="M149.829,99.17c-1.597,0.868-2.763,1.489-3.917,2.131c-2.859,1.59-5.746,3.134-8.563,4.797
	c-5.363,3.166-11.266,3.855-17.294,3.676c-3.057-0.091-6.178-0.412-9.129-1.176c-7.723-1.999-12.314-7.012-13.231-15.055
	c-0.757-6.641-0.084-13.096,3.281-19.026c3.783-6.667,9.877-10.282,16.931-12.611c6.344-2.094,12.897-2.561,19.508-2.699
	c5.218-0.108,10.435-0.284,15.652-0.438c0.615-0.018,1.23-0.158,1.841-0.133c2.506,0.101,3.606-1.467,4.013-3.578
	c0.337-1.746,0.619-3.583,0.445-5.332c-0.351-3.529-2.253-5.65-5.766-6.032c-4.271-0.464-8.603-0.707-12.894-0.57
	c-6.259,0.2-12.473,1.048-18.524,2.777c-0.949,0.271-1.845,0.728-2.761,1.111c-2.413,1.009-4.603-0.165-4.41-2.714
	c0.311-4.097,0.828-8.21,1.694-12.222c0.475-2.205,2.358-3.578,4.71-4.05c7.832-1.571,15.736-2.443,23.722-2.652
	c6.47-0.169,12.897,0.05,19.242,1.478c5.784,1.302,10.621,4.252,14.699,8.477c4.423,4.582,5.913,10.201,4.786,16.3
	c-2.092,11.323-9.353,45.539-10.68,51.361c-0.65,2.854-2.328,4.356-5.279,4.459c-5.499,0.192-11.005,0.235-16.508,0.281
	c-1.636,0.014-2.069-0.553-1.974-2.225C149.536,103.538,149.674,101.571,149.829,99.17z M147.735,70.138
	c-0.001,0.038-0.001,0.076-0.002,0.114c-2.46,0.154-4.924,0.26-7.379,0.472c-4.079,0.351-8.087,1.069-11.809,2.874
	c-4.945,2.399-6.933,5.838-6.616,11.298c0.286,4.927,3.266,8.061,8.162,8.667c3.957,0.49,7.866,0.1,11.733-0.667
	c3.086-0.612,5.865-1.956,7.896-4.459c3.802-4.684,4.976-10.229,5.012-16.086c0.009-1.387-0.875-2.135-2.308-2.198
	C150.864,70.085,149.298,70.138,147.735,70.138z"/>
<path fill="#285D8B" d="M325.85,72.931c-3.65,0-7.301-0.016-10.951,0.007c-1.788,0.011-3.097,0.74-3.625,2.582
	c-1.201,4.186-6.298,22.926-7.633,28.113c-0.694,2.698-2.09,3.819-4.862,3.835c-5.743,0.033-11.487,0.043-17.231,0.045
	c-3.073,0.001-4.373-1.366-3.916-4.441c0.389-2.62,15.447-67.17,22.343-96.861c0.905-3.894,2.554-5.221,6.573-5.212
	c10.683,0.024,43.444,0.181,49.142,0.21c14.295,0.073,26.12,11.513,26.603,25.768c0.326,9.621-1.534,18.702-6.928,26.833
	c-5.266,7.938-12.841,12.779-21.721,15.729C344.625,72.536,335.3,73.397,325.85,72.931z M326.526,53.014
	c2.552-0.188,4.689-0.261,6.804-0.517c5.331-0.644,10.445-1.982,14.799-5.323c5.004-3.841,6.742-8.958,5.697-15.106
	c-0.947-5.57-4.604-8.625-9.665-10.296c-5.23-1.728-10.639-1.787-16.051-1.346c-2.725,0.222-4.501,1.749-5.167,4.512
	c-0.633,2.623-1.472,5.198-2.071,7.828c-1.104,4.848-2.171,9.706-3.11,14.588c-0.6,3.119,0.483,4.668,3.522,5.191
	C323.141,52.864,325.05,52.89,326.526,53.014z"/>
<path fill="#285D8B" d="M425.541,99.205c-1.006,0.416-1.625,0.618-2.194,0.917c-4.532,2.382-9.061,4.772-13.579,7.18
	c-4.39,2.34-9.196,2.551-13.98,2.564c-4.031,0.011-8.03-0.504-11.816-2.116c-6.589-2.805-9.953-7.853-10.652-14.881
	c-0.491-4.936-0.086-9.773,1.584-14.436c2.845-7.945,8.773-12.722,16.44-15.655c6.88-2.632,14.045-3.366,21.343-3.452
	c5.644-0.067,11.287-0.314,16.929-0.512c3.453-0.121,4.345-0.743,5.116-4.089c0.387-1.681,0.528-3.492,0.375-5.207
	c-0.284-3.18-2.334-5.425-5.655-5.871c-3.692-0.496-7.452-0.801-11.171-0.713c-6.971,0.165-13.886,1.015-20.627,2.928
	c-0.812,0.23-1.582,0.621-2.354,0.976c-2.612,1.201-4.753-0.017-4.532-2.84c0.298-3.812,0.766-7.63,1.478-11.385
	c0.428-2.258,2.034-3.934,4.4-4.342c4.8-0.828,9.609-1.762,14.455-2.138c6.138-0.476,12.324-0.729,18.474-0.554
	c7.958,0.227,15.635,1.745,22.072,7.027c3.893,3.195,6.89,6.932,7.761,12.033c0.616,3.607,0.198,7.197-0.545,10.735
	c-3.259,15.513-6.559,31.018-9.857,46.523c-0.882,4.146-2.266,5.395-6.447,5.53c-5.074,0.165-10.152,0.202-15.229,0.253
	c-1.826,0.019-2.181-0.367-2.119-2.177C425.279,103.53,425.415,101.558,425.541,99.205z M425.847,70.052
	c-3.22,0.199-6.735,0.294-10.221,0.663c-3.963,0.42-7.87,1.201-11.445,3.109c-3.276,1.749-5.598,4.271-6.034,8.089
	c-0.608,5.331,1.225,10.949,8.357,11.736c4.253,0.469,8.421,0.07,12.54-0.92c3.833-0.922,6.754-3.162,8.712-6.588
	c2.285-3.998,3.185-8.393,3.418-12.926c0.118-2.291-0.862-3.138-3.192-3.161C427.365,70.047,426.748,70.052,425.847,70.052z"/>
<path fill="#285D8B" d="M484.382,107.385c2.299-0.057,2.81-0.5,3.289-2.535c2.061-8.748,17.549-74.116,23.208-98.057
	c0.62-2.621-1.217-4.912-3.951-4.933c-5.411-0.042-10.821-0.065-16.232-0.068c-3.282-0.002-4.876,1.234-5.649,4.43
	c-1.168,4.828-20.743,93.859-21.324,98.024c-0.281,2.016,0.842,2.944,2.869,2.93C469.487,107.154,482.864,107.423,484.382,107.385z"
	/>
</svg>
